<svg width="40" height="40" viewBox="0 0 40 40" fill="none" xmlns="http://www.w3.org/2000/svg">
<path d="M19.7114 27.1376L26.7461 20L19.7114 12.8624L18.0715 14.5263L22.2891 18.8057H12.3096V21.1943H22.2891L18.0715 25.4737L19.7114 27.1376ZM19.7149 40C17.0099 40 14.4613 39.4751 12.0691 38.4253C9.67685 37.3754 7.58486 35.9419 5.79309 34.1247C4.00129 32.3075 2.58782 30.1858 1.55269 27.7597C0.517564 25.3335 0 22.7481 0 20.0035C0 17.2373 0.517339 14.6373 1.55202 12.2033C2.5867 9.76929 3.99952 7.65206 5.7905 5.8516C7.58151 4.0511 9.67258 2.62571 12.0637 1.57543C14.4549 0.525144 17.003 0 19.7079 0C22.4342 0 24.9968 0.524916 27.3956 1.57474C29.7945 2.62457 31.8812 4.04931 33.6556 5.84896C35.4302 7.64865 36.835 9.76496 37.8701 12.1979C38.9052 14.6308 39.4228 17.2303 39.4228 19.9965C39.4228 22.7411 38.9055 25.327 37.8708 27.7542C36.8361 30.1815 35.4319 32.3041 33.6582 34.1221C31.8845 35.9401 29.7988 37.3743 27.4009 38.4246C25.0032 39.4749 22.4411 40 19.7149 40ZM19.7114 37.6114C24.5422 37.6114 28.6427 35.8961 32.0131 32.4656C35.3835 29.0351 37.0686 24.8799 37.0686 20C37.0686 15.0985 35.3835 10.9379 32.0131 7.51818C28.6427 4.09849 24.5422 2.38864 19.7114 2.38864C14.9019 2.38864 10.8067 4.09849 7.42567 7.51818C4.04467 10.9379 2.35417 15.0985 2.35417 20C2.35417 24.8799 4.04467 29.0351 7.42567 32.4656C10.8067 35.8961 14.9019 37.6114 19.7114 37.6114Z" fill="black"/>
</svg>
