<?xml version="1.0" encoding="UTF-8"?>
<svg id="_レイヤー_1" data-name="レイヤー_1" xmlns="http://www.w3.org/2000/svg" version="1.1" xmlns:xlink="http://www.w3.org/1999/xlink" viewBox="0 0 243.8 82.2">
  <!-- Generator: Adobe Illustrator 29.0.1, SVG Export Plug-In . SVG Version: 2.1.0 Build 192)  -->
  <defs>
    <style>
      .st0 {
        fill: #b58a1f;
      }

      .st1, .st2 {
        fill: none;
      }

      .st3 {
        fill: #bb8d1b;
      }

      .st2 {
        stroke: #b58a1f;
        stroke-miterlimit: 10;
        stroke-width: 1.5px;
      }

      .st4 {
        clip-path: url(#clippath);
      }
    </style>
    <clipPath id="clippath">
      <path class="st1" d="M2.3,41.1c0,21.4,17.3,38.7,38.7,38.7s38.7-17.3,38.7-38.7S62.5,2.4,41.1,2.4,2.3,19.7,2.3,41.1"/>
    </clipPath>
  </defs>
  <g class="st4">
    <polygon class="st3" points="10.7 95.3 37.9 67.5 36.8 66.5 9.6 94.2 10.7 95.3"/>
    <polygon class="st3" points="37 59.5 9.8 87.2 10.9 88.3 38.1 60.6 37 59.5"/>
    <polygon class="st3" points="9.6 107.9 10.7 109 38 81.3 36.9 80.2 9.6 107.9"/>
    <polygon class="st3" points="9.8 101 10.9 102.1 38.2 74.3 37.1 73.3 9.8 101"/>
    <polygon class="st3" points="38 53.9 36.9 52.8 9.6 80.6 10.7 81.6 38 53.9"/>
    <polygon class="st3" points="38.2 46.9 37.1 45.9 9.8 73.6 10.9 74.7 38.2 46.9"/>
    <polygon class="st3" points="-18.7 57.9 20.1 57.5 20.1 56 -18.7 56.4 -18.7 57.9"/>
    <rect class="st3" x="-13.7" y="51.4" width="38.9" height="1.5" transform="translate(-.5 0) rotate(-.5)"/>
    <rect class="st3" x="-28.4" y="66" width="38.9" height="1.5" transform="translate(-.7 0) rotate(-.6)"/>
    <polygon class="st3" points="-23.4 61.4 -23.4 62.9 15.5 62.6 15.5 61 -23.4 61.4"/>
    <rect class="st3" x="-9.1" y="46.6" width="38.9" height="1.5" transform="translate(-.2 0) rotate(-.3)"/>
    <rect class="st3" x="-4" y="41.8" width="38.9" height="1.5" transform="translate(-.4 .2) rotate(-.5)"/>
    <polygon class="st3" points="-13.1 10.7 14.6 37.9 15.7 36.8 -12 9.6 -13.1 10.7"/>
    <polygon class="st3" points="22.7 37.1 -5.1 9.8 -6.2 10.9 21.6 38.2 22.7 37.1"/>
    <polygon class="st3" points="-25.8 9.7 -26.9 10.7 .9 38 2 36.9 -25.8 9.7"/>
    <rect class="st3" x="-6.3" y="4.6" width="1.5" height="38.9" transform="translate(-18.8 3.3) rotate(-45.5)"/>
    <polygon class="st3" points="28.3 38 29.3 36.9 1.6 9.7 .5 10.7 28.3 38"/>
    <rect class="st3" x="21.1" y="4.6" width="1.5" height="38.9" transform="translate(-10.6 22.7) rotate(-45.4)"/>
    <polygon class="st3" points="24.3 -18.7 24.6 20.2 26.1 20.2 25.8 -18.7 24.3 -18.7"/>
    <polygon class="st3" points="30.9 25.2 30.6 -13.6 29 -13.6 29.4 25.3 30.9 25.2"/>
    <polygon class="st3" points="16 -28.4 14.5 -28.4 14.8 10.5 16.4 10.5 16 -28.4"/>
    <polygon class="st3" points="20.8 -23.3 19.3 -23.3 19.6 15.6 21.1 15.6 20.8 -23.3"/>
    <polygon class="st3" points="34.2 29.9 35.7 29.9 35.4 -9 33.9 -9 34.2 29.9"/>
    <polygon class="st3" points="39 34.9 40.5 34.9 40.2 -4 38.6 -4 39 34.9"/>
    <polygon class="st3" points="71.5 -13.1 44.2 14.7 45.3 15.7 72.6 -12 71.5 -13.1"/>
    <rect class="st3" x="38.7" y="7.5" width="38.9" height="1.5" transform="translate(11.5 44) rotate(-45.5)"/>
    <polygon class="st3" points="72.5 -25.7 71.4 -26.8 44.2 .9 45.3 2 72.5 -25.7"/>
    <rect class="st3" x="38.7" y="-6.2" width="38.9" height="1.5" transform="translate(21.4 39.9) rotate(-45.6)"/>
    <rect class="st3" x="38.9" y="14.2" width="38.9" height="1.5" transform="translate(6.8 46.2) rotate(-45.6)"/>
    <rect class="st3" x="38.7" y="21.2" width="38.9" height="1.5" transform="translate(1.8 48.1) rotate(-45.5)"/>
    <rect class="st3" x="62" y="24.5" width="38.9" height="1.5" transform="translate(-.2 .7) rotate(-.5)"/>
    <polygon class="st3" points="56.9 30.9 95.8 30.6 95.8 29.1 56.9 29.4 56.9 30.9"/>
    <polygon class="st3" points="110.6 16.1 110.6 14.5 71.7 14.9 71.7 16.4 110.6 16.1"/>
    <polygon class="st3" points="105.5 20.8 105.5 19.3 66.6 19.6 66.6 21.2 105.5 20.8"/>
    <rect class="st3" x="52.3" y="34.1" width="38.9" height="1.5" transform="translate(-.4 .7) rotate(-.6)"/>
    <rect class="st3" x="47.2" y="38.8" width="38.9" height="1.5" transform="translate(-.4 .6) rotate(-.6)"/>
    <rect class="st3" x="80.1" y="39" width="1.5" height="38.9" transform="translate(-17.5 75.2) rotate(-45.5)"/>
    <rect class="st3" x="73.1" y="38.8" width="1.5" height="38.9" transform="translate(-19.4 70.1) rotate(-45.5)"/>
    <rect class="st3" x="93.8" y="38.9" width="1.5" height="38.9" transform="translate(-13.4 84.8) rotate(-45.4)"/>
    <rect class="st3" x="86.9" y="38.7" width="1.5" height="38.9" transform="translate(-15.3 79.8) rotate(-45.5)"/>
    <rect class="st3" x="66.4" y="38.9" width="1.5" height="38.9" transform="translate(-21.5 65.5) rotate(-45.5)"/>
    <polygon class="st3" points="46.9 44 45.8 45.1 73.6 72.3 74.7 71.2 46.9 44"/>
    <polygon class="st3" points="57.9 100.9 57.5 62 56 62 56.3 100.9 57.9 100.9"/>
    <polygon class="st3" points="51.2 57 51.6 95.8 53.1 95.8 52.8 57 51.2 57"/>
    <rect class="st3" x="65.9" y="71.7" width="1.5" height="38.9" transform="translate(-.9 .6) rotate(-.5)"/>
    <polygon class="st3" points="61.3 105.5 62.9 105.5 62.5 66.6 61 66.6 61.3 105.5"/>
    <polygon class="st3" points="47.9 52.3 46.4 52.3 46.7 91.2 48.3 91.2 47.9 52.3"/>
    <polygon class="st3" points="43.2 47.3 41.6 47.3 42 86.2 43.5 86.2 43.2 47.3"/>
  </g>
  <g>
    <path class="st0" d="M158.2,46.9c-.2.3-.5.6-.7.8h-.2c.8-1.1,1.3-2.2,1.6-3.2h-.7c0,.3,0,.5-.1.6-.1.3-.2.4-.4.4s-.3-.1-.3-.3,0-.2.2-.3c.2-.2.4-.6.4-1h.2c0,0,0,.1,0,.2,0,0,0,.1,0,.1h.7c.1-.4.2-.8.3-1.4.5,0,.8.2.8.3s-.1.1-.4.2c-.1.4-.2.7-.2.9h1.3l.3-.4c.4.3.6.5.6.6s0,0,0,0h-.3c-.1.2-.3.4-.5.6h-.2c.1-.3.2-.5.2-.6h-1.4c-.2.6-.4,1.1-.7,1.6h.8c.1-.4.2-.8.3-1.2.5,0,.7.2.7.3s0,.1-.3.1c0,.2-.3.5-.5.8h.8l.3-.5c.1.1.3.3.5.5v.2h-1.3v1h.4l.3-.4c.2.1.3.3.4.5v.2h-1.1v1.1h.4l.3-.4c.2.2.3.4.4.5v.2h-1.1v1.2h.6l.3-.5c.2.2.3.3.4.5.2-.3.3-.6.3-1.1h.2c0,.3,0,.5,0,.6,0,.4,0,.7-.2,1-.1.2-.2.3-.4.3s-.3,0-.3-.3,0-.2.2-.3h-2.6v.5h-.5v-3.9ZM158.7,46.4v1h.8v-1h-.8ZM159.6,47.6h-.8v1.1h.8v-1.1ZM158.7,50.1h.8v-1.2h-.8v1.2ZM162.4,48.1v.4h-.5v-4.8c.2,0,.4.2.6.3h.4c0-.3.1-.6.1-1.1.6,0,.8.1.8.3s-.1.1-.3.2c0,.2-.2.4-.4.6h1.1l.3-.4c.4.3.5.5.5.5s0,0,0,0h-.2v2.4h-.5v-.3h-1.9v.7h2.5l.4-.5c.2.2.4.4.5.5v.2h-3.5v.7h2.4l.3-.4c.3.3.5.4.5.5s0,0,0,0h-.2c0,1.4-.1,2.2-.4,2.5-.2.2-.4.3-.7.3,0-.2,0-.3-.3-.4,0,0-.3,0-.7-.1v-.2c.4,0,.7,0,.9,0s.4-.1.4-.4c0-.3.1-.9.2-1.8h-2.5ZM162.4,48.8c.4.5.5.9.5,1.3s0,.4-.3.4-.2,0-.2-.3h0c0,0,0-.1,0-.1,0-.1,0-.2,0-.3,0-.3,0-.6-.2-.9h.2ZM162.4,44.2v.8h1.9v-.8h-1.9ZM162.4,46.1h1.9v-.8h-1.9v.8ZM162.9,48.6c.5.4.8.8.8,1.2s0,.3-.3.3-.2-.1-.2-.3c0-.3-.2-.7-.4-1h.1ZM163.7,48.3c.6.3.9.7.9,1.1s0,.3-.2.3-.2,0-.2-.3c0-.3-.2-.6-.5-.9h.1Z"/>
    <path class="st0" d="M174.3,43.6l.3-.4c.4.3.6.5.6.6s0,0,0,.1h-.2v6.3c0,.5-.3.7-.9.7,0-.2,0-.3-.3-.4-.1,0-.4-.1-.9-.2v-.2c.5,0,.9,0,1.2,0s.3,0,.4-.1c0,0,0,0,0-.1v-6.1h-5.6v7.1h-.5v-7.6c.2,0,.4.2.6.3h5.5ZM171.7,46.2v2.7h1.1v-2c.5,0,.8,0,.8.2s0,.1-.3.2v2.3h-.5v-.5h-2.7v.7h-.5v-2.9c.6,0,.8.1.8.2s-.1.1-.4.2v1.5h1.1v-2.7h-2.1v-.2c0,0,2.7,0,2.7,0,.3-.5.5-1.1.6-1.8.5.2.8.3.8.5s-.1.1-.4.1c-.2.4-.5.8-.8,1.2h1l.4-.5c.2.2.4.4.5.6v.2h-2.3ZM170,44.2c.7.4,1.1.8,1.1,1.2s-.1.4-.3.4-.2,0-.3-.3c0-.4-.3-.8-.6-1.1v-.2Z"/>
    <path class="st0" d="M184.1,44.5c0,.1,0,.3,0,.4-.1.1-.2.3-.3.5-.2.5-.4.9-.7,1.5-.4.6-.8,1-1.3,1.6-.6.5-.9.7-1.4,1-.5.3-.8.4-1.1.5-.2,0-.3,0-.3,0,0,0,0-.1.1-.2,0,0,.2-.1.6-.3.6-.3.8-.5,1.4-.9.6-.5,1-1,1.3-1.5.3-.5.6-1,.7-1.3.1-.4.2-.7.3-.9,0-.1,0-.3,0-.3,0,0-.2,0-.5,0-.4,0-.8,0-1.2.1-.4,0-.8.2-1.2.2s-.6,0-.8-.2c-.2-.2-.3-.4-.2-.5.1,0,.2,0,.3,0,.1,0,.3.1.6.1.3,0,.6,0,1.1,0,.5,0,1.1-.1,1.4-.1.3,0,.4,0,.6-.1.1,0,.3-.1.5,0,.2,0,.3.3.4.4Z"/>
    <path class="st0" d="M189.1,45.4c-.1-.1-.1-.3,0-.4.1-.1.3,0,.4,0,.1,0,.3.2.5.2.2,0,.3,0,.6,0,.5,0,.8,0,1.2-.1.2,0,.7,0,1.1-.1.4,0,.7,0,.9,0,.2,0,.3,0,.4,0,0,0,.2.1.2.2,0,0,0,.1-.2.3-.2.1-.6.4-.9.6-.3.2-.8.3-1.2.4,0,.3,0,.6,0,.9,0,.5-.2.9-.4,1.4-.2.4-.4.7-.6.9-.2.2-.6.5-1,.7-.1,0-.2,0-.1-.1,0,0,.2-.2.4-.3.3-.2.6-.5.8-.9.3-.4.4-.8.5-1.3,0-.5,0-.9,0-1.3,0-.4-.2-.7-.4-.9,0,0-.1-.2-.1-.2,0,0-.2,0-.2,0-.3,0-.6,0-1,0-.3,0-.5-.1-.6-.3ZM191.3,45.5c.2,0,.3.1.4.2.1.1.2.3.2.5,0,0,0,.1,0,.2.2,0,.3-.2.5-.3.2-.1.4-.3.5-.4.1-.1.2-.2.2-.3,0,0-.1,0-.2,0-.2,0-.6,0-1,.1-.2,0-.3,0-.5,0Z"/>
    <path class="st0" d="M205,47.2c0,.1-.2.2-.4.1-.2,0-.8-.1-1.1-.1-.4,0-1.1,0-1.5,0-.4,0-1.1,0-1.6,0-.4,0-.8.1-1.1.1-.4,0-.7-.1-.9-.3-.2-.1-.3-.4-.2-.5.2-.1.5,0,.7,0,.2,0,.7.1,1.1.1.4,0,1.3,0,1.7,0,.4,0,1.6,0,2,0,.4,0,.8,0,1,.1.2,0,.3.3.3.4Z"/>
    <path class="st0" d="M214.8,45.2c.1.1.1.3,0,.3,0,0-.2.1-.3.1,0,0-.3,0-.4.2,0,.1-.4.4-.9,1-.5.5-.9.8-1.3,1.1.2.2.3.4.3.7.1.3.1.7-.2.8-.3.1-.6-.2-.6-.5-.2-.5-.3-.8-.4-1.1-.1-.3-.3-.5-.5-.8,0,0-.1-.2,0-.2,0,0,.2,0,.4.1.3.3.6.5.9.8.5-.4.9-.8,1.2-1.2.3-.3.6-.8.7-1,.1-.2,0-.3-.2-.3-.2,0-1,.1-1.5.1-.5,0-1.3.2-1.7.2-.5.1-.9.1-1.1,0-.3,0-.4-.2-.6-.4-.1-.2-.1-.3,0-.4.1-.1.5,0,.7.2.2,0,.6,0,1.1,0,.4,0,1.1-.1,1.6-.1.5,0,1.1,0,1.4,0,.3,0,.6-.1.7-.2.2,0,.3-.1.4,0,.1.1.3.4.5.5Z"/>
    <path class="st0" d="M225,47.2c0,.1-.2.2-.4.1-.2,0-.8-.1-1.1-.1-.4,0-1.1,0-1.5,0-.4,0-1.1,0-1.6,0-.4,0-.8.1-1.1.1-.4,0-.7-.1-.9-.3-.2-.1-.3-.4-.2-.5.2-.1.5,0,.7,0,.2,0,.7.1,1.1.1.4,0,1.3,0,1.7,0,.4,0,1.6,0,2,0,.4,0,.8,0,1,.1.2,0,.3.3.3.4Z"/>
    <path class="st0" d="M228,50c0,0,0-.1.2-.2.4-.2.7-.4,1-.5.3-.2.6-.4,1.1-.8.4-.4.7-.7,1-1,.3-.3.7-.9,1-1.3.3-.4.4-.7.5-1,0-.2,0-.3-.4-.3-.2,0-.3,0-.7.2-.4,0-.6.1-.9.1-.3,0-.6-.1-.8-.2-.2-.2-.3-.4-.2-.5,0,0,.3-.1.4,0,.1,0,.3.2.5.2.3,0,.8,0,1.2,0,.5,0,.8-.2.9-.2.1,0,.3-.2.5,0,.2.1.3.3.4.6,0,.4,0,.5-.3.7-.2.1-.3.2-.5.6-.2.3-.5.6-.8,1.1.3,0,.7.2,1.1.5.4.3.7.6.9.8.2.2.4.8,0,1-.3.2-.6-.1-.8-.4-.1-.3-.3-.6-.6-.9-.3-.3-.5-.5-.9-.7,0,0,0,0,0,0-.5.5-.8.9-1.2,1.2-.4.3-.7.6-1.2.9-.3.2-.8.4-1.1.5-.2,0-.3,0-.3,0ZM234.2,44.3c-.1-.1-.3-.3-.6-.5,0,0-.1-.1,0-.2,0,0,.1,0,.2,0,.2,0,.3,0,.5.1.2,0,.5.2.6.4,0,.2,0,.3-.1.4-.2,0-.4,0-.5-.2ZM235,43.9c-.1-.2-.3-.3-.6-.4,0,0-.1-.1,0-.2,0,0,.1,0,.2,0,.2,0,.3,0,.5,0,.2,0,.5.2.6.4.1.2,0,.3-.1.4-.1,0-.4,0-.5-.2Z"/>
  </g>
  <g>
    <path class="st0" d="M85.1,27h9.4v2.8h-.3c0-1-.3-1.7-.8-2-.4-.3-.9-.4-1.7-.4h-1.4v8.2c0,.5,0,.8.3.9.2.1.5.2,1.1.2v.3h-3.6v-.3c.6,0,1-.1,1.1-.3.1-.1.2-.4.2-.8v-8.2h-1.3c-1.1,0-1.7.2-2.1.7-.2.4-.4.9-.4,1.7h-.3v-2.8Z"/>
    <path class="st0" d="M95.8,33.3h.3c.2,1.1.6,2,1.2,2.5.7.6,1.4,1,2.2,1s.9-.1,1.3-.3c.8-.4,1.1-1,1.1-1.8s-.7-1.6-2-2.1l-1.8-.7c-.7-.3-1.2-.6-1.5-.9-.4-.4-.7-1-.7-1.7s.2-1.1.7-1.5c.6-.6,1.5-.9,2.5-.9s1.6.2,2.3.7c.1,0,.2.1.3.1.2,0,.3-.2.4-.6h.3v3h-.3c-.1-.7-.4-1.3-.9-1.8-.6-.6-1.3-1-2-1s-1.1.2-1.5.5c-.5.4-.7.9-.7,1.5s.6,1.3,1.7,1.8l1.7.7c1.8.7,2.7,1.7,2.7,3s-.4,1.6-1.1,2c-.6.4-1.4.6-2.3.6s-1.7-.3-2.7-.7c-.2,0-.3-.1-.4-.1-.2,0-.4.2-.5.6h-.3v-3.7Z"/>
    <path class="st0" d="M104.5,27h3.6v.3c-.7,0-1.1.2-1.2.4,0,.1-.1.4-.1.8v4.5c0,1.2.3,2.1.8,2.7.6.7,1.5,1.1,2.7,1.1s2.1-.5,2.7-1.5c.3-.6.5-1.3.5-2.2v-4.5c0-.5,0-.8-.2-.9-.1-.1-.5-.2-1.1-.3v-.3h3.2v.3c-.7,0-1,.2-1.2.3,0,.1-.1.4-.1.8v4.5c0,1.5-.4,2.6-1.2,3.3-.7.6-1.6,1-2.8,1-2.8,0-4.2-1.5-4.2-4.4v-4.4c0-.5,0-.8-.3-.9s-.5-.2-1.1-.2v-.3Z"/>
    <path class="st0" d="M116.2,27h4.4c2.7,0,4,.8,4,2.5s-1.1,2.2-3.2,2.4l3.1,4.1c.3.4.8.7,1.5.8v.3h-2l-.8-1c-1.1-1.5-2.1-2.9-2.9-4.1h-1.8v3.7c0,.5.1.8.4.9.2,0,.5.2.9.2v.3h-3.6v-.3c.7,0,1.1-.2,1.2-.4,0-.1.1-.4.1-.8v-7.1c0-.5,0-.8-.3-.9-.2-.1-.5-.2-1.1-.2v-.3ZM118.5,31.5h2c1.9,0,2.9-.7,2.9-2s-1-2.1-2.8-2.1h-1c-.5,0-.8.1-.9.3,0,.1-.1.4-.1.7v3.1Z"/>
    <path class="st0" d="M125.9,27h3.6v.3c-.7,0-1.1.2-1.2.4,0,.1-.1.4-.1.8v4.5c0,1.2.3,2.1.8,2.7.6.7,1.5,1.1,2.7,1.1s2.1-.5,2.7-1.5c.3-.6.5-1.3.5-2.2v-4.5c0-.5,0-.8-.2-.9-.1-.1-.5-.2-1.1-.3v-.3h3.2v.3c-.7,0-1,.2-1.2.3,0,.1-.1.4-.1.8v4.5c0,1.5-.4,2.6-1.2,3.3-.7.6-1.6,1-2.8,1-2.8,0-4.2-1.5-4.2-4.4v-4.4c0-.5,0-.8-.3-.9-.2-.1-.5-.2-1.1-.2v-.3Z"/>
    <path class="st0" d="M146.2,28.4c.8,1,1.1,2.2,1.1,3.6s-.4,2.8-1.2,3.7c-.9,1-2,1.5-3.5,1.5s-2.8-.6-3.6-1.7c-.7-.9-1.1-2.1-1.1-3.6s.4-2.6,1.1-3.5c.9-1.2,2.1-1.8,3.6-1.8s2.7.6,3.6,1.7ZM139.9,28.6c-.6.9-.9,2-.9,3.3s.3,2.4.8,3.2c.7,1.1,1.6,1.6,2.8,1.6s1.9-.4,2.5-1.3c.7-.9,1-2.1,1-3.5s-.3-2.6-1-3.5c-.7-.9-1.5-1.3-2.6-1.3s-2,.5-2.7,1.5Z"/>
    <path class="st0" d="M147.9,27h3.6v.3c-.7,0-1.1.2-1.2.4,0,.1-.1.4-.1.7v4.1l4.4-4.5c0,0,.1-.2.1-.3,0-.3-.4-.4-1.2-.5v-.3h3.6v.3c-.8,0-1.3.3-1.8.8l-2.8,2.8,4.1,4.9c.4.5,1,.8,1.7.9v.3h-3.9v-.3c.8,0,1.2-.2,1.2-.4s0-.3-.2-.4l-3.4-4.3-1.7,1.7v2.3c0,.4,0,.7.3.9.2.1.5.2,1.1.2v.3h-3.6v-.3c.7,0,1.1-.2,1.2-.4,0-.1.1-.4.1-.8v-7.1c0-.5,0-.8-.3-.9-.2-.1-.5-.2-1.1-.2v-.3Z"/>
    <path class="st0" d="M164.1,26.7h.4l3.9,9c.3.6.8.9,1.6,1v.3h-4v-.3c.9,0,1.4-.2,1.4-.6s0-.2,0-.4l-1-2.5h-4.4l-1,2.4c0,.2-.1.3-.1.4,0,.4.5.5,1.5.6v.3h-3.5v-.3c.7,0,1.2-.4,1.5-1.1l3.9-8.9ZM164.1,28.2l-2,4.7h4l-2-4.7Z"/>
    <path class="st0" d="M174.8,27h8.4v2.8h-.3c0-1-.3-1.7-.8-2-.4-.3-1-.4-1.8-.4h-2.1c-.5,0-.8,0-.9.3,0,.2-.2.4-.2.7v3.1h2c.7,0,1.2-.2,1.4-.4.2-.2.3-.6.3-1.1h.3v3.6h-.3c0-.7-.2-1.2-.5-1.4-.3-.2-.7-.3-1.2-.3h-2v3.6c0,.4,0,.8.3.9.2.1.6.2,1.1.3v.3h-3.7v-.3c.7,0,1.1-.2,1.2-.4,0-.1.1-.4.1-.8v-7.1c0-.5,0-.8-.3-.9-.2-.1-.5-.2-1.1-.2v-.3Z"/>
    <path class="st0" d="M191.5,35.9c-.6.9-1.1,1.3-1.6,1.3s-.9-.4-1-1c-.8.7-1.7,1-2.6,1s-.9-.1-1.2-.3c-.5-.3-.7-.8-.7-1.4s.4-1.4,1.1-1.8c.8-.5,2-.9,3.3-1,0-1.6-.5-2.3-1.6-2.3s-1.4.3-1.6.8c.2,0,.4.3.4.6,0,.4-.2.6-.7.6s-.7-.3-.7-.8.2-.7.6-1c.6-.5,1.3-.7,2.1-.7s1.6.3,2,.8c.3.4.5,1,.5,2v2.8c0,.6.2.9.5.9s.7-.3,1-.8l.3.2ZM188.7,33.1c-2.3.3-3.5,1.1-3.5,2.4s.5,1.2,1.4,1.2,1.4-.3,2.1-.9v-2.6Z"/>
    <path class="st0" d="M193,37v-.3c.6,0,.9-.1,1-.3,0-.1.1-.4.1-.8v-4c0-.5-.1-.8-.4-.9-.1,0-.4-.1-.8-.1v-.3c.7,0,1.4-.2,2-.4v1.6c.8-1,1.6-1.6,2.5-1.6s.5,0,.8.2c.3.2.5.5.5.8,0,.5-.2.8-.7.8s-.7-.2-.7-.7,0-.3.1-.4c-.1,0-.3,0-.3,0-.8,0-1.5.6-2.1,1.7v3.4c0,.5.1.8.3.9.2,0,.5.1.9.2v.3h-3.4Z"/>
    <path class="st0" d="M201.4,37v-.3c.5,0,.9-.1,1-.3,0-.1.1-.4.1-.8v-4c0-.5-.1-.8-.4-.9-.1,0-.4-.1-.8-.1v-.3c.7,0,1.4-.2,2-.4v1.4c.6-.9,1.3-1.3,2.1-1.3s1.5.5,1.8,1.4c.6-.9,1.4-1.4,2.2-1.4s1.4.4,1.7,1c.2.4.3.8.3,1.3v3.3c0,.5.1.8.4.9.2,0,.4.1.8.1v.3h-3.2v-.3c.5,0,.9-.1,1-.3,0-.1.1-.4.1-.8v-2.9c0-1.4-.5-2.1-1.4-2.1s-1.2.5-1.7,1.4v3.6c0,.5.1.8.4.9.2,0,.4.1.8.1v.3h-3.2v-.3c.5,0,.9-.1,1-.3,0-.1.1-.4.1-.8v-2.9c0-1.4-.5-2.1-1.4-2.1s-1.2.5-1.7,1.4v3.6c0,.5.1.8.4.9.2,0,.4.1.8.1v.3h-3.2Z"/>
    <path class="st0" d="M220.8,35.2c-.6,1.4-1.6,2-3,2s-2-.4-2.6-1.1c-.6-.7-.8-1.5-.8-2.5s.2-1.6.7-2.3c.7-.9,1.5-1.4,2.7-1.4s2.3.6,2.9,1.8c.2.5.4,1,.4,1.7h-5.6c0,.7.1,1.4.4,1.9.5,1,1.2,1.5,2.2,1.5s1.9-.6,2.6-1.7l.3.2ZM219.8,33c0-.6-.2-1.2-.5-1.6-.4-.7-1-1-1.7-1s-1.1.3-1.5.8c-.4.5-.7,1.1-.8,1.8h4.4Z"/>
    <path class="st0" d="M222.8,37v-.3c.6,0,.9-.1,1-.3,0-.1.1-.4.1-.8v-4c0-.5-.1-.8-.4-.9-.1,0-.4-.1-.8-.1v-.3c.7,0,1.4-.2,2-.4v1.6c.8-1,1.6-1.6,2.5-1.6s.5,0,.8.2c.3.2.5.5.5.8,0,.5-.2.8-.7.8s-.7-.2-.7-.7,0-.3.1-.4c-.1,0-.3,0-.3,0-.8,0-1.5.6-2.1,1.7v3.4c0,.5.1.8.3.9.2,0,.5.1.9.2v.3h-3.4Z"/>
    <path class="st0" d="M230.2,34.4h.3c.3.8.7,1.4,1.2,1.8.5.4,1.1.6,1.6.6s.8-.1,1.2-.4c.4-.3.6-.6.6-1s-.4-1-1.2-1.3l-1.7-.6c-1.1-.4-1.6-1-1.6-1.8s.2-.9.6-1.3c.4-.4,1-.6,1.7-.6s1.4.3,2,.8l.2-.5h.3v2.2h-.3c-.2-.6-.5-1.1-.9-1.5-.4-.4-.9-.6-1.3-.6s-.7,0-.9.2c-.4.2-.6.6-.6,1s.4.8,1.1,1.1l1.7.7c1.2.4,1.8,1.1,1.8,2s-.2,1-.8,1.4c-.5.3-1.1.5-1.8.5s-1.7-.3-2.4-.8l-.4.6h-.3v-2.5Z"/>
  </g>
  <line class="st2" x1="79.4" y1="39.5" x2="241.4" y2="39.5"/>
</svg>