<?xml version="1.0" encoding="UTF-8"?>
<svg id="_レイヤー_1" data-name="レイヤー_1" xmlns="http://www.w3.org/2000/svg" version="1.1" xmlns:xlink="http://www.w3.org/1999/xlink" viewBox="0 0 99.2 119.1">
  <!-- Generator: Adobe Illustrator 29.0.1, SVG Export Plug-In . SVG Version: 2.1.0 Build 192)  -->
  <defs>
    <style>
      .st0 {
        fill: #fff;
      }

      .st1 {
        fill: none;
      }

      .st2 {
        clip-path: url(#clippath);
      }
    </style>
    <clipPath id="clippath">
      <path class="st1" d="M10.9,40.5c0,21.4,17.3,38.7,38.7,38.7s38.7-17.3,38.7-38.7S71,1.7,49.6,1.7,10.9,19.1,10.9,40.5"/>
    </clipPath>
  </defs>
  <g>
    <path class="st0" d="M21.9,108.5h7.2v2.4h-.3c0-.9-.3-1.5-.7-1.7-.3-.2-.8-.3-1.5-.3h-1.8c-.4,0-.7,0-.8.3,0,.2-.1.3-.1.6v2.6h1.7c.6,0,1-.1,1.2-.4.2-.2.3-.5.3-.9h.3v3.1h-.3c0-.6-.2-1-.5-1.2-.2-.1-.6-.2-1-.2h-1.7v3.1c0,.4,0,.6.2.8.2.1.5.2,1,.2v.3h-3.2v-.3c.6,0,.9-.2,1-.3,0-.1.1-.3.1-.6v-6.1c0-.4,0-.6-.2-.8-.2-.1-.5-.2-.9-.2v-.3Z"/>
    <path class="st0" d="M37.5,116.2c-.5.8-.9,1.1-1.4,1.1s-.8-.3-.9-.9c-.7.6-1.5.9-2.2.9s-.8,0-1.1-.3c-.4-.3-.6-.7-.6-1.2s.3-1.2,1-1.6c.7-.5,1.7-.7,2.9-.9,0-1.3-.5-2-1.4-2s-1.2.2-1.4.7c.2,0,.3.2.3.5,0,.4-.2.5-.6.5s-.6-.2-.6-.6.2-.6.5-.8c.5-.4,1.1-.6,1.8-.6s1.4.2,1.7.7c.3.3.4.9.4,1.7v2.4c0,.5.2.8.5.8s.6-.2.9-.7l.2.2ZM35.1,113.7c-2,.3-3,.9-3,2s.4,1,1.2,1,1.2-.3,1.8-.8v-2.3Z"/>
    <path class="st0" d="M39.2,117.1v-.3c.5,0,.8-.1.9-.3,0-.1.1-.3.1-.6v-3.4c0-.4,0-.7-.3-.7-.1,0-.3,0-.7,0v-.3c.6,0,1.2-.2,1.7-.4v1.4c.7-.9,1.4-1.4,2.2-1.4s.5,0,.6.2c.3.2.4.4.4.7,0,.4-.2.7-.6.7s-.6-.2-.6-.6,0-.3.1-.4c-.1,0-.2,0-.3,0-.7,0-1.3.5-1.8,1.4v2.9c0,.4,0,.7.3.8.1,0,.4.1.8.1v.3h-2.9Z"/>
    <path class="st0" d="M46.3,117.1v-.3c.5,0,.8,0,.9-.3,0-.1.1-.3.1-.6v-3.4c0-.4,0-.7-.3-.7-.1,0-.3,0-.7,0v-.3c.6,0,1.2-.2,1.7-.4v1.2c.5-.8,1.1-1.2,1.8-1.2s1.3.4,1.6,1.2c.5-.8,1.2-1.2,1.9-1.2s1.2.3,1.5.9c.2.3.3.7.3,1.1v2.9c0,.4.1.7.3.8.1,0,.4,0,.7.1v.3h-2.8v-.3c.5,0,.8,0,.9-.3,0-.1.1-.3.1-.6v-2.5c0-1.2-.4-1.8-1.2-1.8s-1,.4-1.5,1.2v3.1c0,.4,0,.7.3.8.1,0,.4,0,.7.1v.3h-2.8v-.3c.5,0,.7-.1.9-.3,0-.1.1-.3.1-.6v-2.5c0-1.2-.4-1.8-1.2-1.8s-1.1.4-1.5,1.2v3.1c0,.4.1.7.3.8.1,0,.4,0,.7.1v.3h-2.8Z"/>
    <path class="st0" d="M63.1,115.6c-.5,1.2-1.4,1.8-2.6,1.8s-1.7-.3-2.3-1c-.5-.6-.7-1.3-.7-2.2s.2-1.4.6-2c.6-.8,1.3-1.2,2.3-1.2s2,.5,2.5,1.5c.2.4.3.9.3,1.4h-4.8c0,.6,0,1.2.3,1.6.4.9,1.1,1.3,1.9,1.3s1.7-.5,2.2-1.5l.2.2ZM62.3,113.7c0-.6-.2-1-.4-1.4-.4-.6-.8-.9-1.4-.9s-.9.2-1.3.7c-.4.4-.6.9-.7,1.6h3.8Z"/>
    <path class="st0" d="M65.3,117.1v-.3c.5,0,.8-.1.9-.3,0-.1.1-.3.1-.6v-3.4c0-.4,0-.7-.3-.7-.1,0-.3,0-.7,0v-.3c.6,0,1.2-.2,1.7-.4v1.4c.7-.9,1.4-1.4,2.2-1.4s.5,0,.7.2c.3.2.4.4.4.7,0,.4-.2.7-.6.7s-.6-.2-.6-.6,0-.3.1-.4c-.1,0-.2,0-.3,0-.7,0-1.3.5-1.8,1.4v2.9c0,.4,0,.7.3.8.1,0,.4.1.8.1v.3h-2.9Z"/>
    <path class="st0" d="M72.3,114.9h.3c.2.7.6,1.2,1,1.5.5.4.9.6,1.4.6s.7,0,1-.3c.3-.2.5-.5.5-.9s-.3-.8-1-1.1l-1.5-.5c-1-.3-1.4-.9-1.4-1.5s.2-.8.5-1.1c.4-.3.9-.5,1.5-.5s1.2.2,1.8.7l.2-.4h.3v1.9h-.3c-.2-.5-.4-1-.8-1.3-.4-.3-.7-.5-1.1-.5s-.6,0-.8.2c-.3.2-.5.5-.5.9s.3.7.9.9l1.5.6c1,.4,1.5,1,1.5,1.8s-.2.9-.7,1.2c-.4.3-.9.4-1.6.4s-1.5-.2-2.1-.7l-.4.5h-.3v-2.2Z"/>
  </g>
  <g>
    <path class="st0" d="M1.3,94.7h8.1v2.4h-.3c0-.9-.3-1.5-.6-1.7-.3-.2-.8-.3-1.5-.3h-1.2v7.1c0,.4,0,.6.2.8.1.1.4.2.9.2v.3h-3.1v-.3c.5,0,.8,0,1-.2,0-.1.2-.4.2-.7v-7.1h-1.2c-.9,0-1.5.2-1.8.6-.2.3-.3.8-.4,1.5h-.3v-2.4Z"/>
    <path class="st0" d="M14.7,100.1h.3c.2,1,.5,1.7,1,2.2.6.6,1.2.8,1.9.8s.8,0,1.1-.3c.7-.3,1-.9,1-1.6s-.6-1.4-1.7-1.9l-1.5-.6c-.6-.2-1-.5-1.3-.8-.4-.4-.6-.9-.6-1.5s.2-1,.6-1.3c.6-.5,1.3-.8,2.1-.8s1.4.2,2,.6c.1,0,.2.1.3.1.2,0,.3-.2.3-.5h.3v2.6h-.3c-.1-.6-.4-1.1-.7-1.5-.5-.6-1.1-.8-1.8-.8s-.9.1-1.3.4c-.4.3-.6.7-.6,1.3s.5,1.1,1.5,1.5l1.5.6c1.5.6,2.3,1.5,2.3,2.6s-.3,1.4-.9,1.8c-.5.3-1.2.5-2,.5s-1.5-.2-2.3-.6c-.1,0-.3-.1-.3-.1-.2,0-.3.2-.4.5h-.3v-3.2Z"/>
    <path class="st0" d="M25.5,94.7h3.1v.3c-.6,0-.9.2-1,.3,0,.1-.1.3-.1.7v3.9c0,1,.2,1.8.7,2.3.6.6,1.3.9,2.3.9s1.8-.4,2.3-1.3c.2-.5.4-1.1.4-1.9v-3.9c0-.4,0-.6-.2-.8-.1-.1-.5-.2-.9-.2v-.3h2.8v.3c-.6,0-.9.1-1,.3,0,.1-.1.3-.1.7v3.9c0,1.3-.3,2.2-1,2.8-.6.5-1.4.8-2.4.8-2.4,0-3.6-1.3-3.6-3.8v-3.8c0-.4,0-.7-.2-.8-.1-.1-.4-.2-.9-.2v-.3Z"/>
    <path class="st0" d="M38.6,94.7h3.8c2.3,0,3.4.7,3.4,2.1s-.9,1.9-2.7,2.1l2.7,3.5c.3.3.7.6,1.3.7v.3h-1.7l-.7-.9c-.9-1.3-1.8-2.5-2.5-3.5h-1.6v3.2c0,.4.1.7.3.8.2,0,.4.2.8.2v.3h-3.1v-.3c.6,0,.9-.1,1-.3,0-.1.1-.3.1-.6v-6.2c0-.4,0-.6-.2-.8-.1-.1-.4-.2-.9-.2v-.3ZM40.6,98.6h1.8c1.6,0,2.5-.6,2.5-1.8s-.8-1.8-2.4-1.8h-.9c-.4,0-.7,0-.8.3,0,.1-.1.3-.1.6v2.7Z"/>
    <path class="st0" d="M50.3,94.7h3.1v.3c-.6,0-.9.2-1,.3,0,.1-.1.3-.1.7v3.9c0,1,.2,1.8.7,2.3.6.6,1.3.9,2.3.9s1.8-.4,2.3-1.3c.2-.5.4-1.1.4-1.9v-3.9c0-.4,0-.6-.2-.8-.1-.1-.5-.2-.9-.2v-.3h2.8v.3c-.6,0-.9.1-1,.3,0,.1-.1.3-.1.7v3.9c0,1.3-.3,2.2-1,2.8-.6.5-1.4.8-2.4.8-2.4,0-3.6-1.3-3.6-3.8v-3.8c0-.4,0-.7-.2-.8-.1-.1-.4-.2-.9-.2v-.3Z"/>
    <path class="st0" d="M70.5,95.9c.7.8,1,1.9,1,3.1s-.4,2.4-1.1,3.2c-.7.9-1.8,1.3-3,1.3s-2.4-.5-3.1-1.4c-.6-.8-1-1.8-1-3.1s.3-2.2,1-3c.8-1,1.8-1.5,3.1-1.5s2.3.5,3.1,1.5ZM65,96.1c-.5.8-.8,1.7-.8,2.9s.2,2,.7,2.8c.6.9,1.4,1.4,2.4,1.4s1.6-.4,2.2-1.1c.6-.8.9-1.8.9-3s-.3-2.3-.9-3c-.6-.8-1.3-1.1-2.2-1.1s-1.8.4-2.3,1.3Z"/>
    <path class="st0" d="M75.6,94.7h3.1v.3c-.6,0-.9.2-1,.3,0,.1-.1.3-.1.6v3.5l3.8-3.8c0,0,.1-.2.1-.2,0-.2-.3-.4-1-.4v-.3h3.1v.3c-.6,0-1.1.3-1.5.7l-2.5,2.5,3.5,4.2c.4.5.9.7,1.4.7v.3h-3.3v-.3c.7,0,1-.2,1-.3s0-.2-.2-.4l-3-3.7-1.4,1.4v2c0,.4,0,.6.2.8.1.1.4.2.9.2v.3h-3.1v-.3c.6,0,.9-.1,1-.3,0-.1.1-.3.1-.6v-6.2c0-.4,0-.6-.2-.8-.1-.1-.4-.2-.9-.2v-.3Z"/>
    <path class="st0" d="M92.8,94.5h.3l3.4,7.7c.2.5.7.8,1.4.8v.3h-3.5v-.3c.8,0,1.2-.2,1.2-.5s0-.2,0-.3l-.9-2.2h-3.8l-.9,2.1c0,.2,0,.3,0,.4,0,.3.4.5,1.3.5v.3h-3v-.3c.6,0,1.1-.4,1.3-.9l3.4-7.6ZM92.8,95.7l-1.7,4h3.4l-1.7-4Z"/>
  </g>
  <g class="st2">
    <polygon class="st0" points="19.2 94.6 46.4 66.9 45.4 65.8 18.1 93.6 19.2 94.6"/>
    <polygon class="st0" points="45.6 58.9 18.3 86.6 19.4 87.7 46.7 59.9 45.6 58.9"/>
    <polygon class="st0" points="18.2 107.3 19.2 108.4 46.5 80.6 45.4 79.6 18.2 107.3"/>
    <polygon class="st0" points="18.4 100.4 19.5 101.4 46.7 73.7 45.6 72.6 18.4 100.4"/>
    <polygon class="st0" points="46.5 53.3 45.4 52.2 18.2 79.9 19.2 81 46.5 53.3"/>
    <polygon class="st0" points="46.7 46.3 45.6 45.2 18.4 73 19.5 74 46.7 46.3"/>
    <polygon class="st0" points="-10.2 57.3 28.7 56.9 28.7 55.4 -10.2 55.7 -10.2 57.3"/>
    <rect class="st0" x="-5.1" y="50.8" width="38.9" height="1.5" transform="translate(-.5 .1) rotate(-.5)"/>
    <rect class="st0" x="-19.9" y="65.3" width="38.9" height="1.5" transform="translate(-.7 0) rotate(-.6)"/>
    <polygon class="st0" points="-14.8 60.7 -14.8 62.3 24.1 61.9 24.1 60.4 -14.8 60.7"/>
    <rect class="st0" x="-.5" y="46" width="38.9" height="1.5" transform="translate(-.2 0) rotate(-.3)"/>
    <rect class="st0" x="4.5" y="41.2" width="38.9" height="1.5" transform="translate(-.4 .2) rotate(-.5)"/>
    <polygon class="st0" points="-4.6 10 23.2 37.3 24.2 36.2 -3.5 9 -4.6 10"/>
    <polygon class="st0" points="31.2 36.4 3.5 9.2 2.4 10.3 30.1 37.5 31.2 36.4"/>
    <polygon class="st0" points="-17.2 9 -18.3 10.1 9.4 37.4 10.5 36.3 -17.2 9"/>
    <rect class="st0" x="2.3" y="4" width="1.5" height="38.9" transform="translate(-15.8 9.2) rotate(-45.5)"/>
    <polygon class="st0" points="36.8 37.4 37.9 36.3 10.1 9 9.1 10.1 36.8 37.4"/>
    <rect class="st0" x="29.7" y="4" width="1.5" height="38.9" transform="translate(-7.6 28.6) rotate(-45.4)"/>
    <polygon class="st0" points="32.8 -19.4 33.2 19.5 34.7 19.5 34.3 -19.4 32.8 -19.4"/>
    <polygon class="st0" points="39.4 24.6 39.1 -14.3 37.6 -14.3 37.9 24.6 39.4 24.6"/>
    <polygon class="st0" points="24.6 -29 23 -29 23.4 9.9 24.9 9.8 24.6 -29"/>
    <polygon class="st0" points="29.3 -24 27.8 -24 28.1 14.9 29.7 14.9 29.3 -24"/>
    <polygon class="st0" points="42.7 29.2 44.3 29.2 43.9 -9.7 42.4 -9.7 42.7 29.2"/>
    <rect class="st0" x="47.3" y="-4.6" width="1.5" height="38.9" transform="translate(-.2 .5) rotate(-.6)"/>
    <polygon class="st0" points="80 -13.7 52.8 14 53.9 15.1 81.1 -12.6 80 -13.7"/>
    <rect class="st0" x="47.3" y="6.9" width="38.9" height="1.5" transform="translate(14.5 49.9) rotate(-45.5)"/>
    <polygon class="st0" points="81 -26.4 80 -27.5 52.7 .3 53.8 1.4 81 -26.4"/>
    <polygon class="st0" points="80.8 -19.4 79.7 -20.5 52.5 7.2 53.6 8.3 80.8 -19.4"/>
    <polygon class="st0" points="52.7 27.7 53.8 28.7 81 1 80 0 52.7 27.7"/>
    <rect class="st0" x="47.2" y="20.5" width="38.9" height="1.5" transform="translate(4.8 54) rotate(-45.5)"/>
    <rect class="st0" x="70.5" y="23.8" width="38.9" height="1.5" transform="translate(-.2 .8) rotate(-.5)"/>
    <polygon class="st0" points="65.5 30.3 104.4 29.9 104.3 28.4 65.5 28.8 65.5 30.3"/>
    <polygon class="st0" points="119.1 15.4 119.1 13.9 80.2 14.2 80.2 15.8 119.1 15.4"/>
    <rect class="st0" x="75.1" y="18.8" width="38.9" height="1.5" transform="translate(-.2 .8) rotate(-.5)"/>
    <rect class="st0" x="60.9" y="33.4" width="38.9" height="1.5" transform="translate(-.3 .8) rotate(-.6)"/>
    <rect class="st0" x="55.8" y="38.2" width="38.9" height="1.5" transform="translate(-.4 .7) rotate(-.6)"/>
    <rect class="st0" x="88.6" y="38.3" width="1.5" height="38.9" transform="translate(-14.5 81.1) rotate(-45.5)"/>
    <rect class="st0" x="81.6" y="38.1" width="1.5" height="38.9" transform="translate(-16.4 76) rotate(-45.5)"/>
    <rect class="st0" x="102.4" y="38.3" width="1.5" height="38.9" transform="translate(-10.4 90.6) rotate(-45.4)"/>
    <polygon class="st0" points="109.5 71.7 110.6 70.6 82.8 43.3 81.8 44.4 109.5 71.7"/>
    <rect class="st0" x="75" y="38.3" width="1.5" height="38.9" transform="translate(-18.5 71.3) rotate(-45.5)"/>
    <polygon class="st0" points="55.4 43.3 54.4 44.4 82.1 71.7 83.2 70.6 55.4 43.3"/>
    <polygon class="st0" points="66.4 100.3 66.1 61.4 64.5 61.4 64.9 100.3 66.4 100.3"/>
    <polygon class="st0" points="59.8 56.3 60.1 95.2 61.6 95.2 61.3 56.3 59.8 56.3"/>
    <rect class="st0" x="74.5" y="71.1" width="1.5" height="38.9" transform="translate(-.9 .7) rotate(-.6)"/>
    <polygon class="st0" points="69.9 104.9 71.4 104.9 71.1 66 69.5 66 69.9 104.9"/>
    <polygon class="st0" points="56.5 51.7 54.9 51.7 55.3 90.6 56.8 90.6 56.5 51.7"/>
    <polygon class="st0" points="51.7 46.6 50.2 46.6 50.5 85.5 52 85.5 51.7 46.6"/>
  </g>
</svg>