<?xml version="1.0" encoding="UTF-8"?>
<svg id="_レイヤー_1" data-name="レイヤー_1" xmlns="http://www.w3.org/2000/svg" version="1.1" xmlns:xlink="http://www.w3.org/1999/xlink" viewBox="0 0 87.9 172.9">
  <!-- Generator: Adobe Illustrator 29.0.1, SVG Export Plug-In . SVG Version: 2.1.0 Build 192)  -->
  <defs>
    <style>
      .st0 {
        fill: #fff;
        stroke-width: 3px;
      }

      .st0, .st1 {
        stroke: #bb8d1b;
        stroke-miterlimit: 10;
      }

      .st2, .st1 {
        fill: none;
      }

      .st3 {
        fill: #bb8d1b;
      }

      .st4 {
        clip-path: url(#clippath);
      }
    </style>
    <clipPath id="clippath">
      <path class="st2" d="M28.3,126.3c0,8.6,6.9,15.5,15.5,15.5s15.5-6.9,15.5-15.5-6.9-15.5-15.5-15.5-15.5,6.9-15.5,15.5"/>
    </clipPath>
  </defs>
  <path class="st0" d="M5.5,13.5s36.1-21,77,0v145.7s-35.2,21.6-77,0V13.5Z"/>
  <g>
    <path class="st3" d="M33.7,47.7c-.7.9-1.4,1.8-2.2,2.6l-.6-.5c2.3-3,4-6.2,5-9.5h-2.1c0,.8-.2,1.4-.4,1.9-.3.8-.7,1.2-1.3,1.2s-.9-.3-.9-.9.2-.5.6-.9c.8-.7,1.2-1.7,1.3-3.2h.6c0,.2,0,.5,0,.7,0,.2,0,.3,0,.4h2.2c.3-1.1.6-2.5.9-4.2,1.7.2,2.5.6,2.5.9s-.4.4-1.1.6c-.3,1.3-.6,2.2-.7,2.7h3.9l.9-1.3c1.1.9,1.7,1.6,1.7,1.9s0,.2-.2.2l-.9.2c-.4.5-.9,1.1-1.5,1.6l-.5-.3c.3-.7.5-1.3.6-1.7h-4.2v.2c-.7,1.7-1.3,3.2-2.1,4.7h2.5c.4-1.1.8-2.4,1-3.7,1.5.3,2.2.6,2.2.9s-.3.3-.9.4c-.3.6-.8,1.4-1.6,2.4h2.4l1-1.4c.4.4.9.9,1.4,1.5l-.4.6h-3.7v3.1h1.2l1-1.3c.5.5.9.9,1.3,1.4l-.3.5h-3.2v3.3h1.2l1-1.3c.6.6,1,1.1,1.3,1.4l-.3.6h-3.2v3.7h2l1-1.5c.5.5,1,1,1.3,1.6.6-.8.9-2,.9-3.5h.7c0,.8.1,1.4.1,1.9,0,1.2-.2,2.2-.6,3-.3.6-.7.9-1.2.9s-.9-.3-.9-.8.2-.6.5-1h-7.9v1.7h-1.5v-12ZM35.2,46v3.1h2.6v-3.1h-2.6ZM37.8,49.7h-2.6v3.3h2.6v-3.3ZM35.2,57.4h2.6v-3.7h-2.6v3.7ZM46.3,51.4v1.1h-1.5v-14.7c.6.2,1.2.5,1.7.9h1.2c.2-.9.3-2,.4-3.2,1.7.2,2.6.4,2.6.8s-.3.4-1,.6c-.3.6-.7,1.3-1.2,1.9h3.5l.9-1.3c1.1.9,1.6,1.4,1.6,1.7s0,.2-.2.2l-.7.5v6.8h-1.5v-.9h-5.9v2.1h7.7l1.3-1.6c.7.6,1.2,1.2,1.7,1.7l-.3.6h-10.3v2.2h7.4l.9-1.2c1,.8,1.6,1.3,1.6,1.6s0,.2-.2.3l-.6.4c0,4-.4,6.4-1.1,7.3-.5.7-1.2,1.1-2.2,1,0-.5-.3-.9-.8-1.1-.3,0-1-.2-2.1-.5v-.7c1.2.1,2.1.2,2.8.2s1.1-.4,1.3-1.1c.3-1,.5-2.9.5-5.6h-7.7ZM46.5,53.5c1.1,1.4,1.6,2.7,1.6,3.9s-.3,1.3-.9,1.3-.8-.3-.8-.8v-.2c0,0,0-.2,0-.3,0-.3,0-.6,0-.8,0-.9-.2-1.9-.6-2.8l.5-.2ZM46.3,39.4v2.4h5.9v-2.4h-5.9ZM46.3,45h5.9v-2.6h-5.9v2.6ZM48.1,52.8c1.7,1.2,2.5,2.4,2.5,3.6s-.3.9-.8.9-.6-.3-.7-1c-.1-1-.6-2.1-1.4-3.1l.4-.4ZM50.3,52c1.8,1.1,2.7,2.2,2.7,3.3s-.2.8-.8.8-.6-.3-.7-.9c-.2-1-.7-1.9-1.6-2.8l.4-.4Z"/>
    <path class="st3" d="M52.3,78.6l1-1.3c1.2,1,1.7,1.5,1.7,1.7s0,.2-.3.4l-.6.4v19c0,1.5-.9,2.2-2.8,2.2,0-.5-.3-.9-.9-1.1-.4-.2-1.3-.4-2.8-.6v-.7c1.5.2,2.7.2,3.6.2s1-.2,1.1-.4c0-.2,0-.3,0-.5v-18.8h-17.3v21.8h-1.6v-23.4c.6.2,1.2.6,1.9.9h16.8ZM44.4,86.3v8.4h3.3v-6.2c1.7,0,2.5.3,2.5.7s-.3.5-1,.7v7.1h-1.5v-1.6h-8.3v2.2h-1.5v-9c1.7,0,2.6.3,2.6.7s-.4.4-1.1.7v4.7h3.4v-8.4h-6.4l-.2-.7h8.4c.9-1.7,1.5-3.5,2-5.5,1.7.6,2.5,1.1,2.5,1.5s-.4.4-1.2.4c-.6,1.1-1.4,2.3-2.5,3.6h3l1.2-1.7c.6.6,1.2,1.2,1.7,1.8l-.4.6h-6.7ZM39,80.3c2.3,1.2,3.4,2.4,3.4,3.6s-.3,1.1-1,1.1-.7-.3-.8-.8c-.2-1.3-.9-2.5-1.9-3.4l.4-.5Z"/>
  </g>
  <g>
    <g>
      <path class="st3" d="M32.3,153.5h2.9v1h-.1c0-.4-.1-.6-.3-.7-.1,0-.3-.1-.6-.1h-.7c-.2,0-.3,0-.3.1,0,0,0,.1,0,.2v1.1h.7c.2,0,.4,0,.5-.2,0,0,.1-.2.1-.4h.1v1.2h-.1c0-.2,0-.4-.2-.5,0,0-.2,0-.4,0h-.7v1.3c0,.2,0,.3,0,.3,0,0,.2,0,.4,0h0c0,.1-1.3.1-1.3.1h0c.2-.1.4-.2.4-.2,0,0,0-.1,0-.3v-2.5c0-.2,0-.3,0-.3,0,0-.2,0-.4,0h0Z"/>
      <path class="st3" d="M38.5,156.6c-.2.3-.4.5-.6.5s-.3-.1-.4-.3c-.3.2-.6.3-.9.3s-.3,0-.4-.1c-.2-.1-.2-.3-.2-.5s.1-.5.4-.6c.3-.2.7-.3,1.2-.3,0-.5-.2-.8-.6-.8s-.5,0-.5.3c0,0,.1,0,.1.2,0,.1,0,.2-.2.2s-.2,0-.2-.3,0-.2.2-.3c.2-.2.4-.2.7-.2s.5,0,.7.3c.1.1.2.4.2.7v1c0,.2,0,.3.2.3s.2,0,.4-.3h0ZM37.6,155.6c-.8.1-1.2.4-1.2.8s.2.4.5.4.5-.1.7-.3v-.9Z"/>
      <path class="st3" d="M39.2,157h0c.2-.1.3-.2.4-.2,0,0,0-.1,0-.3v-1.4c0-.2,0-.3-.1-.3,0,0-.1,0-.3,0h0c.3-.1.5-.2.7-.3v.6c.3-.4.6-.5.9-.5s.2,0,.3,0c.1,0,.2.2.2.3,0,.2,0,.3-.2.3s-.2,0-.2-.2,0-.1,0-.2c0,0,0,0-.1,0-.3,0-.5.2-.7.6v1.2c0,.2,0,.3.1.3,0,0,.2,0,.3,0h0c0,.1-1.2.1-1.2.1Z"/>
      <path class="st3" d="M42.1,157h0c.2-.1.3-.1.3-.2,0,0,0-.1,0-.3v-1.4c0-.2,0-.3-.1-.3,0,0-.1,0-.3,0h0c.2-.1.5-.2.7-.3v.5c.2-.3.4-.5.7-.5s.5.2.6.5c.2-.3.5-.5.8-.5s.5.1.6.4c0,.1.1.3.1.4v1.1c0,.2,0,.3.1.3,0,0,.1,0,.3,0h0c0,.1-1.1.1-1.1.1h0c.2-.1.3-.1.3-.2,0,0,0-.1,0-.3v-1c0-.5-.2-.7-.5-.7s-.4.2-.6.5v1.3c0,.2,0,.3.1.3,0,0,.1,0,.3,0h0c0,.1-1.1.1-1.1.1h0c.2-.1.3-.2.3-.2,0,0,0-.1,0-.3v-1c0-.5-.2-.7-.5-.7s-.4.2-.6.5v1.3c0,.2,0,.3.1.3,0,0,.1,0,.3,0h0c0,.1-1.1.1-1.1.1Z"/>
      <path class="st3" d="M48.8,156.4c-.2.5-.6.7-1,.7s-.7-.1-.9-.4c-.2-.2-.3-.5-.3-.9s0-.6.2-.8c.2-.3.5-.5.9-.5s.8.2,1,.6c0,.2.1.4.1.6h-1.9c0,.3,0,.5.1.6.2.3.4.5.8.5s.7-.2.9-.6h0ZM48.5,155.6c0-.2,0-.4-.2-.6-.1-.2-.3-.3-.6-.3s-.4,0-.5.3c-.1.2-.2.4-.3.6h1.5Z"/>
      <path class="st3" d="M49.7,157h0c.2-.1.3-.2.4-.2,0,0,0-.1,0-.3v-1.4c0-.2,0-.3-.1-.3,0,0-.1,0-.3,0h0c.3-.1.5-.2.7-.3v.6c.3-.4.6-.5.9-.5s.2,0,.3,0c.1,0,.2.2.2.3,0,.2,0,.3-.2.3s-.2,0-.2-.2,0-.1,0-.2c0,0,0,0-.1,0-.3,0-.5.2-.7.6v1.2c0,.2,0,.3.1.3,0,0,.2,0,.3,0h0c0,.1-1.2.1-1.2.1Z"/>
      <path class="st3" d="M52.5,156.1h.1c0,.3.2.5.4.6.2.1.4.2.5.2s.3,0,.4-.1c.1,0,.2-.2.2-.4s-.1-.3-.4-.4l-.6-.2c-.4-.1-.6-.3-.6-.6s0-.3.2-.4c.2-.1.3-.2.6-.2s.5,0,.7.3v-.2h.2v.8h-.1c0-.2-.2-.4-.3-.5-.1-.1-.3-.2-.5-.2s-.2,0-.3,0c-.1,0-.2.2-.2.4s.1.3.4.4l.6.2c.4.1.6.4.6.7s0,.4-.3.5c-.2.1-.4.2-.6.2s-.6,0-.8-.3v.2h-.3v-.9Z"/>
    </g>
    <g>
      <path class="st3" d="M24.6,148h3.2v1h-.1c0-.4-.1-.6-.3-.7-.1,0-.3-.1-.6-.1h-.5v2.8c0,.2,0,.3,0,.3,0,0,.2,0,.4,0h0c0,.1-1.3.1-1.3.1h0c.2-.1.3-.1.4-.2,0,0,0-.1,0-.3v-2.8h-.5c-.4,0-.6,0-.7.2,0,.1-.1.3-.1.6h-.1v-1Z"/>
      <path class="st3" d="M30,150.2h.1c0,.4.2.7.4.9.2.2.5.3.8.3s.3,0,.5-.1c.3-.1.4-.3.4-.6s-.2-.6-.7-.7l-.6-.3c-.2,0-.4-.2-.5-.3-.2-.1-.2-.3-.2-.6s0-.4.2-.5c.2-.2.5-.3.9-.3s.6,0,.8.2c0,0,0,0,.1,0,0,0,.1,0,.1-.2h.1v1h-.1c0-.2-.2-.5-.3-.6-.2-.2-.4-.3-.7-.3s-.4,0-.5.2c-.2.1-.3.3-.3.5s.2.4.6.6l.6.2c.6.2.9.6.9,1s-.1.5-.4.7c-.2.1-.5.2-.8.2s-.6,0-.9-.3c0,0-.1,0-.1,0,0,0-.1,0-.2.2h-.1v-1.3Z"/>
      <path class="st3" d="M34.3,148h1.2c-.2.1-.4.2-.4.2,0,0,0,.1,0,.3v1.5c0,.4,0,.7.3.9.2.2.5.4.9.4s.7-.2.9-.5c0-.2.2-.4.2-.8v-1.6c0-.2,0-.3,0-.3,0,0-.2,0-.4,0h0c0-.1,1.1-.1,1.1-.1h0c-.2.1-.4.2-.4.2,0,0,0,.1,0,.3v1.6c0,.5-.1.9-.4,1.1-.2.2-.6.3-1,.3-1,0-1.4-.5-1.4-1.5v-1.5c0-.2,0-.3,0-.3,0,0-.2,0-.4,0h0Z"/>
      <path class="st3" d="M39.5,148h1.5c.9,0,1.4.3,1.4.9s-.4.8-1.1.8l1.1,1.4c.1.1.3.2.5.3h0c0,.1-.7.1-.7.1l-.3-.4c-.4-.5-.7-1-1-1.4h-.6v1.3c0,.2,0,.3.1.3,0,0,.2,0,.3,0h0c0,.1-1.3.1-1.3.1h0c.2-.1.4-.2.4-.2,0,0,0-.1,0-.3v-2.5c0-.2,0-.3,0-.3,0,0-.2,0-.4,0h0ZM40.3,149.6h.7c.7,0,1-.2,1-.7s-.3-.7-1-.7h-.3c-.2,0-.3,0-.3.1,0,0,0,.1,0,.2v1.1Z"/>
      <path class="st3" d="M44.2,148h1.2c-.2.1-.4.2-.4.2,0,0,0,.1,0,.3v1.5c0,.4,0,.7.3.9.2.2.5.4.9.4s.7-.2.9-.5c0-.2.2-.4.2-.8v-1.6c0-.2,0-.3,0-.3,0,0-.2,0-.4,0h0c0-.1,1.1-.1,1.1-.1h0c-.2.1-.4.2-.4.2,0,0,0,.1,0,.3v1.6c0,.5-.1.9-.4,1.1-.2.2-.6.3-1,.3-1,0-1.4-.5-1.4-1.5v-1.5c0-.2,0-.3,0-.3,0,0-.2,0-.4,0h0Z"/>
      <path class="st3" d="M52.3,148.5c.3.3.4.7.4,1.2s-.1,1-.4,1.3c-.3.3-.7.5-1.2.5s-1-.2-1.3-.6c-.3-.3-.4-.7-.4-1.2s.1-.9.4-1.2c.3-.4.7-.6,1.2-.6s.9.2,1.3.6ZM50.1,148.6c-.2.3-.3.7-.3,1.2s0,.8.3,1.1c.2.4.6.5.9.5s.6-.1.9-.4c.2-.3.4-.7.4-1.2s-.1-.9-.3-1.2c-.2-.3-.5-.5-.9-.5s-.7.2-.9.5Z"/>
      <path class="st3" d="M54.3,148h1.3c-.2.1-.4.2-.4.2,0,0,0,.1,0,.3v1.4l1.5-1.5s0,0,0,0c0,0-.1-.1-.4-.2h0c0-.1,1.2-.1,1.2-.1h0c-.3.1-.5.2-.6.4l-1,1,1.4,1.7c.2.2.3.3.6.3h0c0,.1-1.3.1-1.3.1h0c.3-.1.4-.2.4-.2s0,0,0-.1l-1.2-1.5-.6.6v.8c0,.2,0,.3,0,.3,0,0,.2,0,.4,0h0c0,.1-1.3.1-1.3.1h0c.2-.1.4-.2.4-.2,0,0,0-.1,0-.3v-2.5c0-.2,0-.3,0-.3,0,0-.2,0-.4,0h0Z"/>
      <path class="st3" d="M61.2,147.9h.1l1.4,3.1c0,.2.3.3.6.3h0c0,.1-1.4.1-1.4.1h0c.3-.1.5-.2.5-.3s0,0,0-.1l-.4-.9h-1.5l-.4.8c0,0,0,.1,0,.2,0,.1.2.2.5.2h0c0,.1-1.2.1-1.2.1h0c.3-.1.4-.3.5-.5l1.3-3.1ZM61.2,148.4l-.7,1.6h1.4l-.7-1.6Z"/>
    </g>
    <g class="st4">
      <rect class="st3" x="29" y="141.9" width="15.6" height=".6" transform="translate(-90.4 68.8) rotate(-45.5)"/>
      <polygon class="st3" points="42.2 133.7 31.2 144.8 31.7 145.2 42.6 134.1 42.2 133.7"/>
      <polygon class="st3" points="31.2 153.1 31.6 153.5 42.5 142.4 42.1 142 31.2 153.1"/>
      <polygon class="st3" points="31.3 150.3 31.7 150.7 42.6 139.6 42.2 139.2 31.3 150.3"/>
      <polygon class="st3" points="42.5 131.4 42.1 131 31.2 142.1 31.6 142.5 42.5 131.4"/>
      <rect class="st3" x="29.2" y="133.7" width="15.6" height=".6" transform="translate(-84.7 66.7) rotate(-45.6)"/>
      <polygon class="st3" points="19.8 133 35.4 132.9 35.4 132.3 19.8 132.4 19.8 133"/>
      <rect class="st3" x="21.9" y="130.4" width="15.6" height=".6" transform="translate(-1.2 .3) rotate(-.5)"/>
      <rect class="st3" x="16" y="136.3" width="15.6" height=".6" transform="translate(-1.4 .3) rotate(-.6)"/>
      <polygon class="st3" points="18 134.4 18 135 33.5 134.9 33.5 134.3 18 134.4"/>
      <rect class="st3" x="23.7" y="128.5" width="15.6" height=".6" transform="translate(-.6 .2) rotate(-.3)"/>
      <rect class="st3" x="25.7" y="126.6" width="15.6" height=".6" transform="translate(-1.2 .3) rotate(-.6)"/>
      <rect class="st3" x="27.5" y="111.6" width=".6" height="15.6" transform="translate(-76.8 55.6) rotate(-45.5)"/>
      <polygon class="st3" points="36.4 124.7 25.3 113.8 24.9 114.2 36 125.1 36.4 124.7"/>
      <polygon class="st3" points="17 113.7 16.6 114.2 27.7 125.1 28.1 124.6 17 113.7"/>
      <rect class="st3" x="24.8" y="111.7" width=".6" height="15.6" transform="translate(-77.7 53.6) rotate(-45.5)"/>
      <polygon class="st3" points="38.6 125.1 39.1 124.6 28 113.7 27.5 114.2 38.6 125.1"/>
      <rect class="st3" x="35.8" y="111.7" width=".6" height="15.6" transform="translate(-74.3 61.3) rotate(-45.4)"/>
      <polygon class="st3" points="37 102.4 37.2 117.9 37.8 117.9 37.6 102.4 37 102.4"/>
      <polygon class="st3" points="39.7 120 39.6 104.4 38.9 104.4 39.1 120 39.7 120"/>
      <polygon class="st3" points="33.7 98.5 33.1 98.5 33.3 114.1 33.9 114.1 33.7 98.5"/>
      <polygon class="st3" points="35.6 100.5 35 100.5 35.2 116.1 35.8 116.1 35.6 100.5"/>
      <polygon class="st3" points="41 121.8 41.6 121.8 41.5 106.2 40.9 106.3 41 121.8"/>
      <rect class="st3" x="42.9" y="108.3" width=".6" height="15.6" transform="translate(-1.2 .5) rotate(-.6)"/>
      <polygon class="st3" points="55.9 104.6 45 115.7 45.5 116.2 56.4 105.1 55.9 104.6"/>
      <rect class="st3" x="42.8" y="112.9" width="15.6" height=".6" transform="translate(-65.6 70) rotate(-45.5)"/>
      <polygon class="st3" points="56.3 99.6 55.9 99.1 45 110.2 45.4 110.7 56.3 99.6"/>
      <polygon class="st3" points="56.3 102.3 55.8 101.9 44.9 113 45.4 113.4 56.3 102.3"/>
      <rect class="st3" x="42.9" y="115.6" width="15.6" height=".6" transform="translate(-67.6 71) rotate(-45.6)"/>
      <rect class="st3" x="42.8" y="118.3" width="15.6" height=".6" transform="translate(-69.5 71.7) rotate(-45.5)"/>
      <rect class="st3" x="52.1" y="119.7" width="15.6" height=".6" transform="translate(-1.1 .5) rotate(-.5)"/>
      <polygon class="st3" points="50.1 122.2 65.7 122.1 65.7 121.5 50.1 121.6 50.1 122.2"/>
      <polygon class="st3" points="71.6 116.3 71.6 115.7 56 115.8 56 116.4 71.6 116.3"/>
      <rect class="st3" x="54" y="117.7" width="15.6" height=".6" transform="translate(-1.1 .6) rotate(-.5)"/>
      <rect class="st3" x="48.3" y="123.5" width="15.6" height=".6" transform="translate(-1.2 .5) rotate(-.6)"/>
      <rect class="st3" x="46.2" y="125.4" width="15.6" height=".6" transform="translate(-1.2 .5) rotate(-.6)"/>
      <rect class="st3" x="59.4" y="125.5" width=".6" height="15.6" transform="translate(-77.2 82.5) rotate(-45.5)"/>
      <rect class="st3" x="56.6" y="125.4" width=".6" height="15.6" transform="translate(-78 80.4) rotate(-45.5)"/>
      <rect class="st3" x="64.9" y="125.4" width=".6" height="15.6" transform="translate(-75.5 86.1) rotate(-45.4)"/>
      <polygon class="st3" points="67.7 138.8 68.2 138.4 57.1 127.5 56.6 127.9 67.7 138.8"/>
      <rect class="st3" x="53.9" y="125.4" width=".6" height="15.6" transform="translate(-78.8 78.6) rotate(-45.5)"/>
      <polygon class="st3" points="46.1 127.5 45.7 127.9 56.8 138.8 57.2 138.4 46.1 127.5"/>
      <polygon class="st3" points="50.5 150.2 50.3 134.7 49.7 134.7 49.9 150.3 50.5 150.2"/>
      <rect class="st3" x="47.9" y="132.7" width=".6" height="15.6" transform="translate(-1.3 .5) rotate(-.5)"/>
      <rect class="st3" x="53.7" y="138.6" width=".6" height="15.6" transform="translate(-1.4 .5) rotate(-.5)"/>
      <polygon class="st3" points="51.9 152.1 52.5 152.1 52.3 136.5 51.7 136.5 51.9 152.1"/>
      <polygon class="st3" points="46.5 130.8 45.9 130.8 46 146.4 46.6 146.4 46.5 130.8"/>
      <polygon class="st3" points="44.6 128.8 44 128.8 44.1 144.3 44.7 144.3 44.6 128.8"/>
    </g>
  </g>
  <g>
    <path class="st3" d="M64.4,24.3h1.8v-4.8c.5,0,.7,0,.7.2s0,.1-.3.2v4.4h1.8v-3.6c.4,0,.7,0,.7.2s0,.1-.3.2v4h-.4v-.6h-4v.7h-.4v-4.4c.4,0,.7,0,.7.2s0,.1-.3.2v3.2Z"/>
    <path class="st3" d="M66.1,26.9v2h.3l.3-.5c.1.1.3.3.4.5h0c0,.1-.9.1-.9.1v3h-.4v-3h-.9c0,1.4-.4,2.4-1.2,3.1h-.1c.6-.8.9-1.8,1-3.1h-.9v-.2c0,0,.9,0,.9,0v-2h-.7v-.2c0,0,2.5,0,2.5,0l.3-.4c.2.1.3.3.4.5h0c0,.1-.8.1-.8.1ZM65.7,26.9h-.9v2h.9v-2ZM66.4,31.8c1-.5,1.9-1.3,2.5-2.3.3.2.5.4.5.4s0,0-.2,0,0,0-.1,0c-.7.9-1.6,1.6-2.7,2h-.1ZM66.5,30c.9-.5,1.6-1.3,2.1-2.2.3.2.5.4.5.4s0,0-.2,0,0,0-.1,0c-.6.8-1.3,1.4-2.2,1.8h0ZM66.6,28.1c.8-.5,1.4-1.1,1.8-1.8.3.2.5.3.5.4s0,0-.2,0-.1,0-.1,0c-.5.6-1.1,1.1-1.9,1.4h0Z"/>
    <path class="st3" d="M63.6,38.9c.6-.3,1.2-.8,1.6-1.4.3.2.5.3.5.4s0,0-.2,0,0,0-.2,0c-.5.5-1,.8-1.7,1.1h-.1ZM64.4,37.1h4.1l.4-.4c.2.1.3.3.5.5h0c0,.1-2.6.1-2.6.1v1.9h-.4v-1.9h-1.9v.4h-.4v-3.5c.4,0,.6,0,.6.2s0,.1-.3.2v2.6ZM67.8,33.6l.3-.3c.3.2.4.3.4.4s0,0,0,0h-.2v3h-.4v-.3h-2.2v.4h-.4v-3.4s0,0,0,0c0,0,0,0,0,0,0,0,.2,0,.3.1h2.1ZM67.9,34.4v-.7h-2.2v.7h2.2ZM67.9,34.6h-2.2v.7h2.2v-.7ZM67.9,36.2v-.7h-2.2v.7h2.2ZM67.2,37.5c.6.2,1.1.4,1.5.7.3.2.4.3.4.5s0,.3-.2.3-.2,0-.3-.2c-.3-.4-.8-.7-1.5-1.1h0Z"/>
    <path class="st3" d="M66.2,41.3v-1.2c.5,0,.7,0,.7.2s0,.1-.3.2v.8h1.7l.3-.5c.2.2.3.3.5.5h0c0,.1-4.6.1-4.6.1v1.1c0,1.6-.3,2.7-1,3.5h-.1c.5-.9.7-2,.7-3.5v-1.5c.1,0,.3.1.5.2h1.7ZM67,43.6v2h1.4l.4-.5c.2.2.3.4.5.5h0c0,.1-4.7.1-4.7.1v-.2c0,0,2.1,0,2.1,0v-2h-1.6v-.2c0,0,1.6,0,1.6,0v-1.6c.5,0,.7,0,.7.2s0,.1-.3.2v1.3h1.1l.3-.5c.1.1.3.3.5.5h0c0,.1-1.8.1-1.8.1Z"/>
    <path class="st3" d="M66.6,48.7c0,.3,0,.5-.1.8.5.3.9.6,1.2.9s.4.5.4.7,0,.2-.2.2-.2,0-.3-.2c-.2-.4-.7-.9-1.2-1.4-.3.9-.9,1.6-1.7,2h-.1c1-.8,1.6-1.7,1.6-3h-1.9v4.5h-.4v-4.8c.1,0,.3.1.4.2h0s1.8,0,1.8,0v-1.3c.4,0,.7,0,.7.2s0,.1-.3.2v.9h1.9l.2-.3c.3.2.4.4.4.4s0,0,0,0h-.2v3.8c0,.3-.2.5-.7.6,0-.1,0-.2-.3-.3-.1,0-.4,0-.8-.1v-.2c.4,0,.8,0,1.1,0s.3,0,.3-.2v-3.6h-2Z"/>
    <path class="st3" d="M66.6,55v2.8h1.9l.4-.5c.2.1.3.3.5.5h0c0,.1-2.7.1-2.7.1v2.2h-.4v-2.2h-2.6v-.2c0,0,2.6,0,2.6,0v-2.8h-2.4v-.2c0,0,4.5,0,4.5,0l.4-.5c.2.2.3.3.5.5h0c0,.1-2.4.1-2.4.1ZM64.4,55.4c.4.3.7.7.9,1,.1.2.2.4.2.6s0,.3-.3.3-.2-.1-.2-.3c0-.5-.3-1-.7-1.5h.1ZM67.2,57.3c.3-.6.6-1.3.8-1.9.4.2.6.3.6.4s0,0-.2,0,0,0,0,0c-.3.5-.6,1.1-1,1.5h-.1Z"/>
    <path class="st3" d="M65.9,61.5l.2-.3c.3.2.4.4.4.4s0,0,0,0h-.1v2.5h-.4v-.3h-.8v.9h.7l.3-.4c.1,0,.2.3.4.4h0c0,.1-1.3.1-1.3.1v.9h.2c.5-.1,1-.2,1.4-.3v.2c-1,.3-1.9.5-2.9.7,0,.2,0,.2-.1.2,0,0-.2-.2-.3-.6.4,0,.9-.1,1.3-.2h0v-1h-1.2v-.2c0,0,1.2,0,1.2,0v-.9h-.7v.4h-.4v-3c.2.1.4.2.4.2h1.7ZM64.8,61.7h-.7v.9h.7v-.9ZM64,63.8h.7v-1h-.7v1ZM65.9,62.6v-.9h-.8v.9h.8ZM65.9,62.8h-.8v1h.8v-1ZM68,63.8v2.7c0,.4-.2.5-.7.5,0-.1,0-.2-.2-.3-.1,0-.3,0-.7-.1v-.2c.4,0,.7,0,1,0s.2,0,.2-.2v-2.5h-1.2v-.2c0,0,2.4,0,2.4,0l.3-.3c.3.3.4.4.4.5s0,0,0,0h-.2c-.2.6-.5,1-.7,1.3h-.1c.2-.5.4-1,.5-1.4h-.8ZM68.5,61.7h-1.9v-.2c0,0,1.9,0,1.9,0l.2-.3c.3.3.4.4.4.5s0,0,0,0h-.2c-.3.4-.7.7-1,.9.3.2.4.4.4.6s0,.2-.2.2-.2,0-.2-.2c-.2-.4-.5-.7-1-1h0c.3,0,.6.1.9.3.3-.3.5-.6.7-.9Z"/>
    <path class="st3" d="M69,70.8c0,.4,0,.7,0,1-.1.3-.3.7-.7.9-.4.2-.7.3-1.2.4-.5,0-.9,0-1.2,0,0,0-.1,0-.1,0,0,0,0,0,.1,0,0,0,.2,0,.4,0,.3,0,.6,0,.9-.1.3,0,.6-.2.9-.4.3-.2.6-.6.6-1,0-.4,0-.8,0-1.2-.1-.4-.3-.7-.6-.9-.3-.2-.8-.3-1.3-.3,0,0-.1,0-.2,0,0,.1,0,.4,0,.6,0,.2,0,.6-.1,1,0,.4-.2.9-.5,1.3-.3.4-.6.6-1,.6s-.6-.2-.7-.6c-.2-.4-.2-.7,0-1.1,0-.4.2-.7.5-1,.3-.3.5-.6.9-.8.4-.2.9-.3,1.4-.3.4,0,.9.1,1.2.3.3.2.6.5.8.8.1.3.2.5.3.9ZM66.1,69.2c-.3,0-.7.2-.9.4-.4.3-.7.7-.9,1.1-.2.4-.2.9,0,1.1.1.2.4.3.6.2.3,0,.5-.3.7-.6.2-.3.4-.7.4-1.2,0-.4,0-.8,0-1Z"/>
    <path class="st3" d="M65.8,79.1v1.2c.4,0,.8-.1,1.3-.2v.2c-.7.2-1.5.4-2.2.6,0,.2,0,.2-.1.2,0,0-.2-.2-.3-.6.2,0,.6,0,1,0v-1.3h-.9c0,.8-.4,1.5-.9,1.9h-.1c.4-.6.6-1.4.6-2.3v-1.3c0,0,.2,0,.4.2h3.9l.3-.4c.2.1.3.3.5.4h0c0,.1-4.7.1-4.7.1v.9c0,.1,0,.2,0,.2h4.1l.3-.4c.2.1.3.3.5.4h0c0,.1-2.4.1-2.4.1.2.4.5.6.7.8.3-.2.5-.4.7-.7.3.2.5.3.5.4s0,0-.1,0,0,0-.2,0c-.2.2-.5.3-.7.4.4.3,1,.4,1.6.5-.1.1-.2.3-.3.4-.9-.2-1.5-.6-1.9-1.1-.2-.2-.3-.4-.5-.8h-.9ZM65.7,75.6v-.5c.4,0,.6,0,.6.1s0,.1-.2.2v.2h.9v-.5c.4,0,.6,0,.6.1s0,.1-.2.2v.2h.9l.2-.3c.3.2.4.3.4.4s0,0,0,0h-.2v1.6h-.4v-.2h-3.4v.2h-.4v-2c0,0,.2.1.4.2h.8ZM67.9,78.3l.3-.3s0,0,.1,0c.1,0,.2.2.3.3h0c0,.1-3.7.1-3.7.1v-.2c0,0,3,0,3,0ZM64.8,75.8v.5h.9v-.5h-.9ZM65.7,76.5h-.9v.6h.9v-.6ZM66.9,75.8h-.9v.5h.9v-.5ZM66.9,76.5h-.9v.6h.9v-.6ZM68.2,76.3v-.5h-.9v.5h.9ZM68.2,77v-.6h-.9v.6h.9Z"/>
    <path class="st3" d="M67,86.8c0,.8-.3,1.2-.9,1.2,0-.1,0-.2-.2-.3-.1,0-.3-.1-.7-.2v-.2c.3,0,.6,0,.9,0s.4,0,.4-.2c0-.2,0-.4,0-.6s0-.4,0-.6c-.8.6-1.7,1.2-3,1.5v-.2c1.1-.4,2.1-1,2.8-1.8,0-.2-.1-.3-.2-.4-.6.5-1.5.9-2.5,1.2h0c1-.5,1.8-1,2.4-1.5,0,0,0,0,0,0,0,0-.1-.1-.2-.3-.5.3-1.2.6-2,.8h0c.9-.4,1.7-.8,2.2-1.4h-1.5v-.2c0,0,3.2,0,3.2,0l.4-.4c.2.1.3.3.5.5h0c0,.1-1.5.1-1.5.1.1.5.3,1,.6,1.5.3-.3.6-.7.9-1.2.3.2.5.4.5.4s0,0-.1,0,0,0-.1,0c-.3.3-.6.5-1,.8.4.6,1,1.1,1.7,1.4-.1.1-.2.2-.3.4-1.3-.8-2-1.9-2.3-3.4h-.2c-.2.2-.4.3-.6.4.7.8,1,1.5,1,2.3ZM66.2,82.9v-.9c.4,0,.7,0,.7.2s0,.1-.3.2v.5h2.1l.2-.3c.3.3.5.5.5.6s0,0,0,0h-.2c-.1.2-.3.3-.5.5h-.1c0-.3.2-.4.3-.7h-4.4c0,.4,0,.7-.2.9,0,.1-.2.2-.3.2s-.1,0-.2,0c0,0,0,0,0-.1s0-.2.2-.3c.2-.2.3-.6.4-1h.2c0,0,0,.1,0,.2h1.9Z"/>
    <path class="st3" d="M68.4,90.5c0,0,.1.2.1.2,0,0,0,.1-.2.2-.1,0-.2.3-.3.5-.1.3-.3.6-.6,1-.3.4-.5.7-.8.9-.3.3-.6.5-1.1.8-.4.2-.7.3-1.1.5,0,0-.2,0-.2,0,0,0,0,0,.1,0,.4-.1.6-.2.9-.4.3-.2.7-.5.9-.7.3-.3.6-.6.8-.9.2-.3.4-.6.5-.9.1-.3.2-.5.2-.6,0,0,0-.2,0-.2,0,0-.1,0-.2,0-.1,0-.5,0-.6,0h-.4c0,.1-.2.3-.2.4-.2.4-.5.6-.8.9-.3.3-.5.4-.9.5,0,0-.1,0-.2,0,0,0,0,0,.1-.1.3-.2.5-.3.7-.6.2-.2.5-.5.6-.8.1-.2.2-.5.3-.7,0-.2,0-.3,0-.4,0,0,0-.2-.1-.2,0,0-.1-.2,0-.2,0,0,.2,0,.3,0,.1,0,.3.1.4.2,0,0,0,.2,0,.4,0,0,0,.1-.1.3,0,0,.1,0,.2,0,.1,0,.3,0,.5,0,.2,0,.3,0,.4-.1.1,0,.2,0,.4,0,.1,0,.2.1.3.2ZM68.2,90c-.1-.1-.2-.2-.4-.3,0,0,0,0,0-.1,0,0,0,0,.1,0,.1,0,.2,0,.4,0,.1,0,.4.2.4.3,0,.1,0,.2-.1.3-.1,0-.3,0-.4-.1ZM68.8,89.7c-.1-.1-.2-.2-.5-.3,0,0,0,0,0-.1,0,0,0,0,.1,0,.1,0,.2,0,.4,0,.2,0,.4.1.4.3,0,.1,0,.2,0,.3-.1,0-.3,0-.4-.1Z"/>
    <path class="st3" d="M64.4,100.9c-.2.2-.4.4-.7.5-.1,0-.2,0-.2,0,0,0,0,0,.1-.1.2-.1.3-.2.5-.4.3-.3.4-.5.6-.8.2-.3.3-.6.4-1,0-.3.1-.6.2-.9,0-.4,0-.5-.2-.7,0,0-.2-.2-.1-.2,0,0,.1,0,.3,0,.1,0,.3.1.4.3.1.2.1.3,0,.3,0,0,0,.1,0,.2,0,.2,0,.5,0,.8,0,.5-.3.9-.5,1.2-.2.4-.5.6-.8.9ZM66.5,99.8c0,0,0-.1,0-.4,0-.2,0-.7,0-1.1,0-.4,0-.7,0-.9,0-.2,0-.4-.2-.5-.1-.1-.2-.2-.1-.3,0,0,.1,0,.2,0,.1,0,.2,0,.4.2.2.1.2.3.1.4,0,.1,0,.3,0,.9,0,.6,0,1.1,0,1.3,0,.2,0,.2.1.2s.2,0,.5-.2c.3-.2.4-.3.7-.5.3-.2.5-.5.7-.6.1-.1.3-.2.3-.2,0,0,0,.1-.2.3-.2.2-.5.6-.9.9-.4.3-.7.6-.9.8-.2.2-.4.2-.5.2-.1,0-.3,0-.3-.2,0-.1,0-.2,0-.3Z"/>
    <path class="st3" d="M66.8,104.1c0,.1,0,.2,0,.3,0,.1,0,.6,0,.9,0,.3,0,1.1,0,1.4,0,.2,0,.8,0,1.1,0,.2,0,.5-.1.5,0,0-.1-.2-.1-.5,0-.3,0-.7,0-1,0-.3,0-1.1,0-1.4,0-.4,0-.7,0-.9,0-.2,0-.3-.2-.4,0,0,0-.2,0-.3,0,0,.2,0,.3,0,.2.1.3.2.3.3Z"/>
    <path class="st3" d="M68.3,111c0,.1,0,.2,0,.3,0,0-.2.2-.2.4-.1.4-.3.7-.5,1.1-.3.4-.6.8-1,1.1-.4.4-.7.6-1,.7-.4.2-.6.3-.8.4-.1,0-.2,0-.2,0,0,0,0,0,.1-.1,0,0,.2,0,.4-.2.4-.2.6-.3,1-.7.4-.3.7-.7,1-1.1.2-.3.4-.7.5-1,0-.3.2-.5.2-.7,0-.1,0-.2,0-.3,0,0-.2,0-.3,0-.3,0-.6,0-.9,0-.3,0-.6.1-.9.2-.3,0-.4,0-.6-.1-.2-.1-.2-.3-.2-.4,0,0,.2,0,.3,0,0,0,.2,0,.4,0,.2,0,.4,0,.8,0,.3,0,.8,0,1-.1.2,0,.3,0,.4-.1.1,0,.2-.1.3,0,.1,0,.2.2.3.3ZM69.2,111c-.2,0-.3,0-.3,0,0,0,0-.2.1-.2.1,0,.2-.1.2-.2,0-.2-.2-.3-.3-.3-.2,0-.2.3-.1.5,0,0,0,.2,0,.2,0,0-.1,0-.2-.2-.2-.5.1-.8.5-.8.4,0,.6.3.5.7,0,.1-.1.2-.3.3Z"/>
  </g>
  <g>
    <path class="st3" d="M24.7,34.2c.1.2,0,.4-.1.6-.2.2-.3.4-.4.7-.3.7-.5,1.2-1,2-.5.8-1,1.4-1.8,2.1-.8.7-1.3,1-1.9,1.4-.6.4-1.1.6-1.5.7-.2,0-.4,0-.4,0,0,0,0-.2.2-.2.1,0,.3-.2.8-.4.8-.4,1.1-.6,1.8-1.2.8-.6,1.4-1.3,1.8-2,.4-.6.8-1.3.9-1.8.2-.5.3-1,.4-1.3,0-.2,0-.4,0-.4,0,0-.3,0-.6,0-.5,0-1,0-1.6.2-.6,0-1.1.3-1.6.3-.5,0-.8,0-1.1-.2-.3-.2-.4-.6-.3-.6.1-.1.3,0,.5,0,.2,0,.4.1.8.2.4,0,.8,0,1.5,0,.6,0,1.5-.1,1.9-.2.4,0,.6,0,.8-.2.2-.1.4-.2.6,0,.2.1.5.4.6.6Z"/>
    <path class="st3" d="M19.1,47.3c-.1-.2-.2-.4-.1-.5.2-.2.4,0,.5,0,.2.1.4.2.6.3.2,0,.4,0,.8,0,.7,0,1.1-.1,1.6-.2.3,0,1,0,1.5-.1.5,0,1,0,1.2-.1.2,0,.4,0,.6.1.1,0,.2.2.2.3s0,.2-.2.4c-.2.2-.8.5-1.3.8-.5.3-1,.4-1.6.6,0,.4,0,.8,0,1.2,0,.7-.2,1.2-.5,1.8-.3.6-.5.9-.8,1.3-.3.3-.8.6-1.4,1-.2.1-.3,0-.2-.1.1,0,.3-.2.5-.4.4-.3.7-.6,1.1-1.2.4-.5.5-1.1.6-1.7.1-.7,0-1.2,0-1.7,0-.6-.2-.9-.5-1.2,0-.1-.1-.2-.1-.3-.1,0-.2,0-.3,0-.4,0-.8.1-1.3,0-.5,0-.6-.2-.8-.4ZM22.1,47.4c.2,0,.4.2.5.3.2.2.2.4.2.6,0,0,0,.1,0,.2.2,0,.5-.2.7-.4.3-.2.5-.4.7-.6.1-.2.2-.3.2-.4,0,0-.1-.1-.3,0-.2,0-.9.1-1.3.2-.2,0-.5,0-.7,0Z"/>
    <path class="st3" d="M22,59.8c.1.2,0,.4,0,.6,0,.2,0,1.2,0,1.7,0,.5,0,2.1,0,2.5,0,.4,0,1.5,0,1.9,0,.5,0,1-.3.9-.2,0-.2-.4-.2-.9,0-.5,0-1.3,0-1.9,0-.5,0-1.9,0-2.6,0-.7,0-1.3-.1-1.7,0-.4-.2-.6-.3-.8-.1-.2-.2-.4,0-.5.1,0,.3,0,.6.1.3.2.5.4.6.6Z"/>
    <path class="st3" d="M25.7,73.6c.1.1.2.4,0,.5,0,0-.3.1-.5.2-.1,0-.4,0-.5.2-.1.2-.5.6-1.2,1.3-.7.6-1.2,1.1-1.8,1.5.2.3.4.6.5.9.1.4.2.9-.2,1-.4.1-.8-.3-.9-.7-.2-.7-.4-1.1-.5-1.5-.2-.4-.4-.7-.7-1.1-.1-.1-.2-.3-.1-.3,0,0,.3,0,.5.2.5.4.8.7,1.2,1.1.7-.5,1.3-1.1,1.7-1.6.4-.5.8-1.1.9-1.3.1-.2,0-.4-.3-.4-.3,0-1.4.1-2.1.2-.7,0-1.7.2-2.4.3-.6.1-1.2.1-1.6,0-.4,0-.6-.3-.8-.5-.1-.2-.2-.5,0-.6.2-.1.6.1.9.2.3,0,.9.1,1.5,0,.6,0,1.5-.1,2.2-.2.7,0,1.5,0,2-.1.4,0,.8-.1,1-.2.2-.1.4-.1.6,0,.1.2.5.5.6.6Z"/>
    <path class="st3" d="M22,85.4c.1.2,0,.4,0,.6,0,.2,0,1.2,0,1.7,0,.5,0,2.1,0,2.5,0,.4,0,1.5,0,1.9,0,.5,0,1-.3.9-.2,0-.2-.4-.2-.9,0-.5,0-1.3,0-1.9,0-.5,0-1.9,0-2.6,0-.7,0-1.3-.1-1.7,0-.4-.2-.6-.3-.8-.1-.2-.2-.4,0-.5.1,0,.3,0,.6.1.3.2.5.4.6.6Z"/>
    <path class="st3" d="M16.5,105.8c0,0,.1-.2.3-.3.6-.2,1-.5,1.4-.7.4-.3.8-.6,1.4-1.1.6-.5.9-.9,1.3-1.4.4-.5,1-1.2,1.3-1.8.4-.6.6-1,.7-1.3,0-.3-.1-.5-.5-.4-.3,0-.4.1-.9.2-.5.1-.8.2-1.2.2-.4,0-.9-.1-1.1-.3-.3-.3-.4-.6-.3-.7.1-.1.4-.1.6,0,.2.1.4.2.6.3.4,0,1,0,1.7,0,.6-.1,1-.2,1.2-.3.2,0,.4-.2.7,0,.3.1.5.4.5.9,0,.5-.1.7-.4.9-.2.2-.4.3-.7.8-.3.4-.6.9-1.1,1.5.5.1,1,.3,1.5.6.6.4,1,.8,1.2,1.1.3.3.5,1.1.1,1.3-.4.3-.8-.2-1-.6-.2-.4-.4-.8-.8-1.3-.4-.4-.7-.7-1.2-.9,0,0,0,0,0,0-.6.7-1.1,1.2-1.7,1.7-.6.5-1,.8-1.6,1.2-.4.2-1.1.5-1.6.7-.2,0-.4,0-.4,0ZM24.9,98c-.2-.2-.4-.4-.8-.6-.1,0-.2-.2-.1-.2,0,0,.1,0,.2,0,.2,0,.5,0,.7.2.3,0,.7.3.8.5.1.2,0,.4-.2.5-.2,0-.5,0-.7-.3ZM25.9,97.5c-.2-.2-.4-.4-.8-.6-.1,0-.2-.1-.1-.2,0,0,.2,0,.2,0,.2,0,.5,0,.7.1.3,0,.7.3.8.5.1.2,0,.4-.2.5-.2,0-.5,0-.7-.3Z"/>
  </g>
  <line class="st1" x1="77.8" y1="12.2" x2="77.8" y2="160.7"/>
  <line class="st1" x1="10.1" y1="12.2" x2="10.1" y2="160.7"/>
</svg>